<?xml version="1.0" standalone="no"?>
<!DOCTYPE svg PUBLIC "-//W3C//DTD SVG 20010904//EN"
 "http://www.w3.org/TR/2001/REC-SVG-20010904/DTD/svg10.dtd">
<svg version="1.0" xmlns="http://www.w3.org/2000/svg"
 width="500.000000pt" height="500.000000pt" viewBox="0 0 500.000000 500.000000"
 preserveAspectRatio="xMidYMid meet">
<metadata>
Created by potrace 1.11, written by Peter Selinger 2001-2013
</metadata>
<g transform="translate(0.000000,500.000000) scale(0.100000,-0.100000)"
fill="#000000" stroke="none">
<path d="M0 2500 l0 -2500 2500 0 2500 0 0 2500 0 2500 -858 0 -857 0 -13 -40
c-6 -22 -12 -53 -12 -70 0 -17 -9 -39 -20 -50 -11 -11 -31 -47 -45 -81 -23
-53 -25 -70 -20 -125 7 -63 7 -65 -31 -114 -21 -27 -44 -50 -51 -50 -7 0 -30
7 -50 15 -265 103 -727 110 -993 14 -94 -34 -93 -34 -146 12 -56 48 -61 62
-54 133 6 58 -24 171 -53 200 -21 21 -31 59 -24 87 3 12 2 32 -3 45 l-10 24
-880 0 -880 0 0 -2500z m2928 1993 c98 -29 133 -46 120 -58 -11 -11 -126 -47
-193 -61 -221 -44 -674 -18 -835 48 l-35 15 32 16 c30 16 215 60 293 70 19 3
143 4 275 2 235 -2 242 -2 343 -32z m-1278 -558 l0 -145 116 127 c156 172 144
163 221 163 37 0 63 -4 61 -10 -1 -5 -63 -75 -135 -155 -73 -80 -133 -149
-133 -155 0 -10 44 -60 193 -222 48 -52 87 -98 87 -102 0 -3 -36 -6 -80 -6
-57 0 -81 4 -87 14 -7 12 -59 71 -210 236 l-32 35 -1 -143 0 -143 -62 3 -63 3
-3 310 c-1 170 0 315 3 322 3 9 25 13 65 13 l60 0 0 -145z m895 90 l0 -50
-147 -3 -148 -3 0 -74 0 -75 145 0 145 0 0 -55 0 -56 -142 2 -143 1 0 -83 0
-84 148 -3 148 -3 -3 -52 -3 -52 -210 0 -210 0 -3 310 c-1 170 0 316 3 323 3
10 51 12 212 10 l208 -3 0 -50z m515 0 l0 -55 -145 0 -145 0 0 -75 0 -75 146
0 145 0 -3 -52 -3 -53 -142 -3 -143 -3 0 -84 0 -85 145 0 145 0 0 -55 0 -55
-210 0 -210 0 0 318 c0 175 3 322 7 325 3 4 98 7 210 7 l203 0 0 -55z m429 25
c91 -51 136 -148 113 -237 -19 -69 -48 -110 -100 -140 -38 -22 -61 -28 -134
-31 l-88 -4 0 -104 0 -104 -60 0 -60 0 0 326 0 326 143 -4 c129 -3 146 -6 186
-28z m-1766 -810 c46 -14 79 -33 111 -63 l46 -42 -40 -44 -39 -45 -39 36 c-75
68 -171 76 -259 22 -58 -35 -103 -114 -103 -178 0 -55 39 -135 81 -167 90 -68
195 -66 275 4 l45 40 40 -39 c21 -21 39 -43 39 -49 0 -21 -101 -87 -162 -107
-162 -51 -343 30 -414 185 -83 184 23 399 225 453 67 18 121 17 194 -6z m596
-62 c28 -63 59 -129 197 -417 41 -85 74 -156 74 -158 0 -1 -31 -3 -69 -3 l-68
0 -27 60 -27 60 -158 0 -157 0 -26 -59 -26 -59 -67 -4 c-37 -1 -68 -1 -70 2
-1 3 39 91 89 195 50 105 118 248 151 318 l59 127 49 0 48 0 28 -62z m461
-198 l0 -260 155 0 155 0 0 -60 0 -60 -215 0 -215 0 0 320 0 320 60 0 60 0 0
-260z m619 101 c77 -140 86 -152 98 -135 8 10 48 81 91 156 l77 138 73 0 72 0
0 -320 0 -320 -65 0 -65 0 -2 208 -3 207 -94 -163 c-52 -89 -97 -159 -101
-155 -4 4 -48 80 -96 168 l-89 160 -3 -212 -2 -213 -65 0 -65 0 0 320 0 321
78 -3 77 -3 84 -154z m-1154 -846 c52 -104 115 -243 115 -254 0 -6 -11 -11
-25 -11 -18 0 -31 9 -43 30 -16 29 -19 30 -89 30 -70 0 -73 -1 -88 -30 -12
-23 -22 -30 -45 -30 -17 0 -30 3 -30 8 0 10 129 274 142 290 18 22 42 9 63
-33z m282 -52 l68 -98 3 98 c3 95 3 98 25 95 21 -3 22 -7 25 -156 l3 -153 -28
3 c-22 2 -40 21 -93 100 -36 54 -68 98 -72 98 -5 0 -8 -45 -8 -100 l0 -100
-25 0 -25 0 0 148 c0 82 3 152 7 155 3 4 16 7 29 7 17 0 39 -23 91 -97z m381
71 c40 -30 76 -106 68 -148 -17 -91 -82 -136 -193 -136 l-73 0 0 156 0 157 85
-5 c64 -3 92 -9 113 -24z m-2020 -681 l-3 -58 -80 -3 -80 -3 3 -244 3 -245
-61 0 -60 0 0 245 0 245 -85 0 -85 0 0 60 0 60 225 0 226 0 -3 -57z m364 47
c45 -13 93 -52 115 -93 35 -69 8 -174 -56 -214 -14 -10 -28 -18 -29 -19 -2 -2
10 -15 26 -31 18 -17 40 -57 57 -103 15 -41 33 -90 41 -108 l14 -33 -66 3 -67
3 -31 95 c-26 81 -36 98 -65 117 -21 14 -49 23 -72 23 l-39 0 0 -120 0 -120
-55 0 -55 0 0 305 0 305 123 0 c67 0 139 -5 159 -10z m358 -117 c41 -68 78
-123 81 -123 4 0 43 56 87 125 l81 125 66 0 c36 0 65 -3 65 -7 0 -5 -54 -87
-120 -183 l-120 -175 0 -122 0 -123 -60 0 -60 0 0 125 0 126 -82 127 c-45 70
-97 148 -115 173 -17 26 -29 50 -25 53 3 4 33 6 67 4 l60 -3 75 -122z m808 5
l3 -118 119 0 120 0 0 120 0 121 55 -3 56 -3 2 -303 2 -302 -57 0 -57 0 -3
133 -3 132 -117 3 -118 3 0 -136 0 -135 -60 0 -60 0 0 305 0 306 58 -3 57 -3
3 -117z m879 -63 c46 -99 109 -231 139 -294 30 -62 54 -117 54 -122 0 -5 -27
-9 -60 -9 l-60 0 -30 60 -30 60 -145 0 -145 0 -30 -60 -30 -60 -60 0 c-33 0
-60 4 -60 10 0 7 261 567 277 593 3 4 25 7 50 5 l45 -3 85 -180z m578 158 c72
-39 109 -125 85 -198 -15 -44 -66 -105 -89 -105 -13 -1 -13 -4 5 -18 33 -28
51 -61 87 -164 l34 -98 -62 0 -61 0 -29 90 c-35 108 -62 140 -129 147 l-46 6
0 -122 0 -121 -60 0 -60 0 0 306 0 306 143 -4 c122 -3 148 -6 182 -25z m563
-2 c72 -32 127 -96 152 -179 25 -80 25 -124 1 -201 -23 -74 -68 -132 -129
-169 -46 -26 -52 -27 -219 -30 l-173 -4 0 300 c0 164 3 302 8 306 4 4 75 6
157 4 130 -3 157 -7 203 -27z"/>
<path d="M3282 3858 l3 -123 50 -3 c86 -5 145 49 145 133 0 74 -51 115 -145
115 l-56 0 3 -122z"/>
<path d="M2191 2946 c-28 -59 -51 -110 -51 -112 0 -2 45 -4 100 -4 55 0 100 4
100 9 0 4 -22 55 -49 112 l-49 104 -51 -109z"/>
<path d="M2181 2141 c-12 -22 -21 -45 -21 -51 0 -10 72 -14 82 -4 6 5 -22 78
-35 90 -3 3 -15 -12 -26 -35z"/>
<path d="M2767 2223 c-4 -3 -7 -48 -7 -100 l0 -93 50 0 c54 0 82 19 100 66 14
37 3 70 -36 104 -33 29 -90 41 -107 23z"/>
<path d="M1080 1445 l0 -95 55 0 c71 0 110 20 124 63 24 73 -27 127 -120 127
l-59 0 0 -95z"/>
<path d="M3122 1368 c-65 -140 -69 -128 42 -128 53 0 96 2 96 4 0 2 -22 50
-49 107 l-48 104 -41 -87z"/>
<path d="M3670 1446 l0 -96 50 0 c63 0 103 20 120 59 14 35 8 69 -19 102 -15
19 -30 24 -85 27 l-66 4 0 -96z"/>
<path d="M4192 1324 l3 -209 65 1 c87 1 113 8 156 47 88 77 97 200 22 292 -42
50 -80 66 -170 72 l-78 6 2 -209z"/>
<path d="M1835 4979 c-10 -29 -1 -33 29 -14 33 22 33 35 2 35 -16 0 -27 -7
-31 -21z"/>
<path d="M1925 4923 c7 -43 11 -79 10 -81 -2 -2 -12 1 -23 7 -28 15 -52 14
-52 -2 0 -23 58 -95 89 -112 63 -32 157 -9 192 49 24 40 24 67 -2 100 -42 54
-119 24 -119 -46 0 -16 -5 -28 -10 -28 -17 0 -50 63 -50 95 0 17 9 45 20 63
l20 32 -44 0 -43 0 12 -77z"/>
<path d="M2370 4962 c0 -37 -22 -82 -40 -82 -5 0 -15 12 -22 28 -18 36 -60 42
-82 10 -23 -32 -20 -71 9 -102 64 -69 198 -60 245 16 17 29 28 88 16 88 -2 0
-25 -9 -50 -20 l-46 -19 0 59 c0 47 -3 60 -15 60 -11 0 -15 -11 -15 -38z"/>
<path d="M2640 4940 l0 -60 -40 20 -40 20 0 -30 c0 -38 23 -84 52 -104 13 -10
44 -16 75 -16 44 0 58 5 88 31 28 25 35 38 35 68 0 20 -5 42 -12 49 -19 19
-56 14 -70 -8 -26 -41 -48 -18 -48 51 0 32 -3 39 -20 39 -18 0 -20 -7 -20 -60z"/>
<path d="M3052 4983 c38 -43 30 -94 -25 -150 -37 -39 -50 -42 -41 -8 9 36 -3
73 -27 80 -46 15 -84 -66 -57 -122 19 -41 92 -75 143 -67 22 3 51 13 63 21 24
15 61 85 62 115 0 16 -3 16 -36 2 -20 -8 -39 -13 -42 -10 -5 5 17 95 33 139 6
15 1 17 -40 17 -45 0 -47 -1 -33 -17z"/>
<path d="M3172 4970 c12 -16 23 -30 25 -30 2 0 3 14 3 30 0 25 -4 30 -25 30
l-26 0 23 -30z"/>
<path d="M2505 4970 c-4 -7 -3 -16 3 -22 14 -14 45 -2 40 15 -6 16 -34 21 -43
7z"/>
<path d="M1790 4910 c0 -18 20 -50 31 -50 18 0 5 55 -13 58 -10 2 -18 -2 -18
-8z"/>
<path d="M3210 4899 c-7 -11 -9 -28 -5 -37 6 -15 8 -15 21 2 16 23 19 56 4 56
-5 0 -14 -9 -20 -21z"/>
<path d="M2498 4723 c-15 -24 -15 -29 0 -60 18 -38 27 -38 50 0 15 25 15 29 0
54 -22 37 -30 38 -50 6z"/>
<path d="M2180 4723 c-54 -20 -68 -81 -25 -109 32 -21 89 -13 121 17 30 28 30
44 -1 74 -23 24 -60 31 -95 18z"/>
<path d="M2363 4714 c-8 -22 18 -37 36 -20 7 8 10 19 7 25 -10 16 -36 13 -43
-5z"/>
<path d="M2640 4711 c0 -24 25 -34 40 -16 15 18 5 35 -21 35 -12 0 -19 -7 -19
-19z"/>
<path d="M2766 4707 c-14 -14 -26 -32 -26 -40 0 -24 47 -59 88 -64 34 -5 45
-1 66 20 42 42 11 94 -62 104 -34 5 -45 1 -66 -20z"/>
<path d="M2994 4666 c-8 -22 3 -49 19 -43 6 2 12 14 12 27 0 27 -22 39 -31 16z"/>
<path d="M1987 4656 c-7 -19 18 -40 39 -32 8 3 14 14 12 23 -4 22 -43 29 -51
9z"/>
<path d="M2377 4653 c-11 -10 -8 -41 4 -49 6 -3 18 1 27 9 13 13 13 19 2 31
-14 17 -23 20 -33 9z"/>
<path d="M2627 4653 c-12 -12 -7 -41 8 -47 20 -7 45 3 45 18 0 25 -37 46 -53
29z"/>
<path d="M1879 4615 c-1 -8 -2 -21 -3 -27 -3 -15 23 -48 36 -48 18 0 8 65 -12
78 -17 10 -20 10 -21 -3z"/>
<path d="M3118 4613 c-13 -12 -14 -21 -6 -39 13 -28 23 -30 32 -8 17 44 0 74
-26 47z"/>
<path d="M2014 4586 c-8 -21 13 -46 32 -39 20 8 13 47 -9 51 -9 2 -20 -4 -23
-12z"/>
<path d="M2964 4585 c-8 -19 3 -35 26 -35 19 0 30 17 23 38 -6 17 -42 15 -49
-3z"/>
</g>
</svg>
